<?xml version="1.0" encoding="UTF-8"?>
<svg width="16px" height="16px" viewBox="0 0 16 16" version="1.1" xmlns="http://www.w3.org/2000/svg" xmlns:xlink="http://www.w3.org/1999/xlink">
    <!-- Generator: Sketch 52.3 (67297) - http://www.bohemiancoding.com/sketch -->
    <title>pencil-alt</title>
    <desc>Created with Sketch.</desc>
    <g id="google-registration" stroke="none" stroke-width="1" fill="none" fill-rule="evenodd">
        <g id="inside-app" transform="translate(-782.000000, -134.000000)" fill="#576574" fill-rule="nonzero">
            <g id="Group-4" transform="translate(764.000000, 12.000000)">
                <g id="Group-5" transform="translate(0.000000, 52.000000)">
                    <g id="pencil-alt" transform="translate(18.000000, 70.000000)">
                        <path d="M15.5290448,4.43196881 L14.0912281,5.86978558 C13.9446394,6.01637427 13.7076023,6.01637427 13.5610136,5.86978558 L10.0990253,2.40779727 C9.95243665,2.26120858 9.95243665,2.02417154 10.0990253,1.87758285 L11.5368421,0.439766082 C12.120078,-0.143469786 13.0682261,-0.143469786 13.6545809,0.439766082 L15.5290448,2.31423002 C16.1153996,2.89746589 16.1153996,3.84561404 15.5290448,4.43196881 Z M8.86393762,3.11267057 L0.673684211,11.302924 L0.0124756335,15.0923977 C-0.0779727096,15.6038986 0.368031189,16.0467836 0.879532164,15.9594542 L4.66900585,15.2951267 L12.8592593,7.10487329 C13.005848,6.9582846 13.005848,6.72124756 12.8592593,6.57465887 L9.39727096,3.11267057 C9.24756335,2.96608187 9.01052632,2.96608187 8.86393762,3.11267057 Z M3.8705653,10.6011696 C3.69902534,10.4296296 3.69902534,10.1551657 3.8705653,9.98362573 L8.67368421,5.18050682 C8.84522417,5.00896686 9.11968811,5.00896686 9.29122807,5.18050682 C9.46276803,5.35204678 9.46276803,5.62651072 9.29122807,5.79805068 L4.48810916,10.6011696 C4.3165692,10.7727096 4.04210526,10.7727096 3.8705653,10.6011696 Z M2.74463938,13.2241715 L4.2417154,13.2241715 L4.2417154,14.3563353 L2.23001949,14.7087719 L1.26003899,13.7387914 L1.61247563,11.7270955 L2.74463938,11.7270955 L2.74463938,13.2241715 Z" id="Shape"></path>
                    </g>
                </g>
            </g>
        </g>
    </g>
</svg>