<?xml version="1.0" encoding="UTF-8"?>
<svg width="16px" height="16px" viewBox="0 0 16 16" version="1.1" xmlns="http://www.w3.org/2000/svg" xmlns:xlink="http://www.w3.org/1999/xlink">
    <!-- Generator: Sketch 52.3 (67297) - http://www.bohemiancoding.com/sketch -->
    <title>power-off</title>
    <desc>Created with Sketch.</desc>
    <g id="google-registration" stroke="none" stroke-width="1" fill="none" fill-rule="evenodd">
        <g id="inside-app" transform="translate(-782.000000, -176.000000)" fill="#576574" fill-rule="nonzero">
            <g id="Group-4" transform="translate(764.000000, 12.000000)">
                <g id="Group-5" transform="translate(0.000000, 52.000000)">
                    <g id="power-off" transform="translate(18.000000, 112.000000)">
                        <path d="M12.419802,1.71405941 C14.4158416,3.13980198 15.7148515,5.47168317 15.7148515,8.11089109 C15.7148515,12.4451485 12.2043564,15.9588119 7.87326733,15.9683168 C3.54851485,15.9778218 0.00633663366,12.4514851 -9.98651845e-18,8.12356436 C-0.00316831683,5.48435644 1.29584158,3.14613861 3.28871287,1.71722772 C3.65940594,1.45425743 4.17584158,1.56514851 4.39762376,1.96118812 L4.89821782,2.85148515 C5.08514851,3.18415842 4.99643564,3.60554455 4.68910891,3.83366337 C3.37425743,4.80950495 2.53465347,6.35564356 2.53465347,8.10772277 C2.53148515,11.0320792 4.8950495,13.4336634 7.85742574,13.4336634 C10.759604,13.4336634 13.1992079,11.0827723 13.180198,8.0760396 C13.1706931,6.43485149 12.3976238,4.85069307 11.0225743,3.83049505 C10.7152475,3.60237624 10.629703,3.1809901 10.8166337,2.85148515 L11.3172277,1.96118812 C11.5390099,1.56831683 12.0522772,1.45108911 12.419802,1.71405941 Z M9.12475248,8.36435644 L9.12475248,0.76039604 C9.12475248,0.339009901 8.78574257,0 8.36435644,0 L7.35049505,0 C6.92910891,0 6.59009901,0.339009901 6.59009901,0.76039604 L6.59009901,8.36435644 C6.59009901,8.78574257 6.92910891,9.12475248 7.35049505,9.12475248 L8.36435644,9.12475248 C8.78574257,9.12475248 9.12475248,8.78574257 9.12475248,8.36435644 Z" id="Shape"></path>
                    </g>
                </g>
            </g>
        </g>
    </g>
</svg>